<svg width="100" height="37" viewBox="0 0 100 37" fill="none" xmlns="http://www.w3.org/2000/svg">
<path d="M0.345792 14V0.909091H9.01341V3.19105H3.11355V6.31037H8.43812V8.59233H3.11355V14H0.345792ZM11.4967 14H8.53081L13.05 0.909091H16.6167L21.1295 14H18.1636L14.8845 3.90057H14.7822L11.4967 14ZM11.3113 8.8544H18.317V11.0149H11.3113V8.8544ZM33.6547 0.909091V14H31.2641L25.5688 5.76065H25.4729V14H22.7052V0.909091H25.1341L30.7847 9.14205H30.8998V0.909091H33.6547ZM35.4429 3.19105V0.909091H46.1943V3.19105H42.1865V14H39.4507V3.19105H35.4429ZM48.6217 14H45.6558L50.175 0.909091H53.7417L58.2545 14H55.2886L52.0095 3.90057H51.9072L48.6217 14ZM48.4363 8.8544H55.442V11.0149H48.4363V8.8544ZM66.6329 4.67401C66.5818 4.15838 66.3623 3.75781 65.9745 3.4723C65.5867 3.18679 65.0605 3.04403 64.3957 3.04403C63.944 3.04403 63.5626 3.10795 63.2515 3.2358C62.9404 3.35937 62.7018 3.53196 62.5356 3.75355C62.3737 3.97514 62.2927 4.22656 62.2927 4.50781C62.2842 4.74219 62.3332 4.94673 62.4397 5.12145C62.5505 5.29616 62.7018 5.44744 62.8936 5.57528C63.0853 5.69886 63.3069 5.80753 63.5583 5.90128C63.8097 5.99077 64.0782 6.06747 64.3637 6.13139L65.5399 6.41264C66.1109 6.54048 66.635 6.71094 67.1123 6.92401C67.5896 7.13707 68.0029 7.39915 68.3524 7.71023C68.7018 8.02131 68.9724 8.38778 69.1642 8.80966C69.3602 9.23153 69.4603 9.7152 69.4646 10.2607C69.4603 11.0618 69.2558 11.7564 68.8509 12.3445C68.4504 12.9283 67.8708 13.3821 67.1123 13.706C66.358 14.0256 65.4482 14.1854 64.3829 14.1854C63.3261 14.1854 62.4056 14.0234 61.6215 13.6996C60.8417 13.3757 60.2323 12.8963 59.7934 12.2614C59.3588 11.6222 59.1308 10.8317 59.1095 9.88991H61.7877C61.8176 10.3288 61.9433 10.6953 62.1649 10.9893C62.3907 11.2791 62.6911 11.4986 63.0661 11.6477C63.4454 11.7926 63.8737 11.8651 64.3509 11.8651C64.8197 11.8651 65.2267 11.7969 65.5718 11.6605C65.9213 11.5241 66.1919 11.3345 66.3836 11.0916C66.5754 10.8487 66.6713 10.5696 66.6713 10.2543C66.6713 9.96023 66.5839 9.71307 66.4092 9.51278C66.2387 9.3125 65.9873 9.14205 65.6549 9.00142C65.3268 8.8608 64.9241 8.73295 64.4468 8.6179L63.0214 8.25994C61.9177 7.99148 61.0463 7.57173 60.407 7.00071C59.7678 6.42969 59.4504 5.66051 59.4546 4.69318C59.4504 3.90057 59.6613 3.2081 60.0874 2.61577C60.5178 2.02344 61.108 1.56108 61.858 1.22869C62.608 0.896306 63.4603 0.730113 64.4149 0.730113C65.3865 0.730113 66.2345 0.896306 66.9589 1.22869C67.6876 1.56108 68.2544 2.02344 68.6592 2.61577C69.064 3.2081 69.2728 3.89418 69.2856 4.67401H66.6329ZM70.8277 3.19105V0.909091H81.5791V3.19105H77.5713V14H74.8355V3.19105H70.8277ZM86.1175 0.909091V14H83.3497V0.909091H86.1175ZM99.945 5.49219H97.1453C97.0942 5.12997 96.9898 4.80824 96.8321 4.52699C96.6745 4.24148 96.472 3.99858 96.2249 3.7983C95.9777 3.59801 95.6922 3.4446 95.3683 3.33807C95.0487 3.23153 94.7014 3.17827 94.3264 3.17827C93.6489 3.17827 93.0587 3.34659 92.5558 3.68324C92.053 4.01562 91.6631 4.50142 91.3861 5.14062C91.1091 5.77557 90.9706 6.54687 90.9706 7.45455C90.9706 8.38778 91.1091 9.17187 91.3861 9.80682C91.6673 10.4418 92.0594 10.9212 92.5622 11.245C93.0651 11.5689 93.6468 11.7308 94.3073 11.7308C94.678 11.7308 95.021 11.6818 95.3364 11.5838C95.656 11.4858 95.9394 11.343 96.1865 11.1555C96.4337 10.9638 96.6382 10.7315 96.8002 10.4588C96.9664 10.1861 97.0814 9.875 97.1453 9.52557L99.945 9.53835C99.8726 10.1392 99.6915 10.7188 99.4017 11.277C99.1162 11.831 98.7306 12.3274 98.2448 12.7663C97.7632 13.201 97.1879 13.5462 96.5189 13.8018C95.8541 14.0533 95.102 14.179 94.2625 14.179C93.0949 14.179 92.0509 13.9148 91.1304 13.3864C90.2142 12.858 89.4898 12.093 88.9571 11.0916C88.4287 10.0902 88.1645 8.87784 88.1645 7.45455C88.1645 6.02699 88.433 4.8125 88.9699 3.81108C89.5068 2.80966 90.2355 2.04687 91.156 1.52273C92.0764 0.994318 93.1119 0.730113 94.2625 0.730113C95.021 0.730113 95.7242 0.836647 96.3719 1.04972C97.0239 1.26278 97.6013 1.57386 98.1041 1.98295C98.607 2.38778 99.0161 2.88423 99.3314 3.4723C99.651 4.06037 99.8556 4.73366 99.945 5.49219ZM7.87802 36H6.21609L11.0229 22.9091H12.6593L17.4661 36H15.8042L11.8922 24.9801H11.79L7.87802 36ZM8.49165 30.8864H15.1905V32.2926H8.49165V30.8864ZM29.424 27H27.8388C27.745 26.544 27.581 26.1435 27.3466 25.7983C27.1165 25.4531 26.8352 25.1634 26.5028 24.929C26.1747 24.6903 25.8104 24.5114 25.4098 24.392C25.0092 24.2727 24.5916 24.2131 24.157 24.2131C23.3643 24.2131 22.6463 24.4134 22.0028 24.8139C21.3636 25.2145 20.8544 25.8047 20.4751 26.5845C20.1001 27.3643 19.9126 28.321 19.9126 29.4545C19.9126 30.5881 20.1001 31.5447 20.4751 32.3246C20.8544 33.1044 21.3636 33.6946 22.0028 34.0952C22.6463 34.4957 23.3643 34.696 24.157 34.696C24.5916 34.696 25.0092 34.6364 25.4098 34.517C25.8104 34.3977 26.1747 34.2209 26.5028 33.9865C26.8352 33.7479 27.1165 33.456 27.3466 33.1108C27.581 32.7614 27.745 32.3608 27.8388 31.9091H29.424C29.3047 32.5781 29.0874 33.1768 28.772 33.7053C28.4567 34.2337 28.0646 34.6832 27.5959 35.054C27.1271 35.4205 26.6009 35.6996 26.017 35.8913C25.4375 36.0831 24.8175 36.179 24.157 36.179C23.0405 36.179 22.0476 35.9062 21.1783 35.3608C20.3089 34.8153 19.625 34.0398 19.1264 33.0341C18.6278 32.0284 18.3786 30.8352 18.3786 29.4545C18.3786 28.0739 18.6278 26.8807 19.1264 25.875C19.625 24.8693 20.3089 24.0938 21.1783 23.5483C22.0476 23.0028 23.0405 22.7301 24.157 22.7301C24.8175 22.7301 25.4375 22.826 26.017 23.0178C26.6009 23.2095 27.1271 23.4908 27.5959 23.8615C28.0646 24.228 28.4567 24.6754 28.772 25.2038C29.0874 25.728 29.3047 26.3267 29.424 27ZM32.5225 36H30.8606L35.6674 22.9091H37.3038L42.1106 36H40.4487L36.5368 24.9801H36.4345L32.5225 36ZM33.1362 30.8864H39.8351V32.2926H33.1362V30.8864ZM48.1895 36H44.1497V22.9091H48.3684C49.6383 22.9091 50.725 23.1712 51.6284 23.6953C52.5318 24.2152 53.2243 24.9631 53.7058 25.9389C54.1873 26.9105 54.4281 28.0739 54.4281 29.429C54.4281 30.7926 54.1852 31.9666 53.6994 32.951C53.2136 33.9311 52.5062 34.6854 51.5772 35.2138C50.6483 35.7379 49.519 36 48.1895 36ZM45.7349 34.5938H48.0872C49.1696 34.5938 50.0666 34.3849 50.7782 33.9673C51.4899 33.5497 52.0204 32.9553 52.3699 32.1839C52.7193 31.4126 52.894 30.4943 52.894 29.429C52.894 28.3722 52.7214 27.4624 52.3762 26.6996C52.0311 25.9325 51.5154 25.3445 50.8294 24.9354C50.1433 24.522 49.2889 24.3153 48.2662 24.3153H45.7349V34.5938ZM57.0872 36V22.9091H64.9877V24.3153H58.6724V28.7386H64.5787V30.1449H58.6724V34.5938H65.09V36H57.0872ZM67.845 22.9091H69.737L74.1859 33.7756H74.3393L78.7882 22.9091H80.6802V36H79.1973V26.054H79.0694L74.9785 36H73.5467L69.4558 26.054H69.3279V36H67.845V22.9091ZM82.7337 22.9091H84.549L88.1797 29.0199H88.3331L91.9638 22.9091H93.7791L89.049 30.6051V36H87.4638V30.6051L82.7337 22.9091Z" fill="white"/>
</svg>
