<svg width="238" height="551" viewBox="0 0 238 551" fill="none" xmlns="http://www.w3.org/2000/svg">
<path d="M94 543.433H23.3091L23.3091 496.628H35.6317V528.487H52.476V499.734H64.7986V528.487H94V543.433ZM94 483.218V499.234L23.3091 474.83L23.3091 455.57L94 431.201L94 447.217L39.4631 464.924V465.476L94 483.218ZM66.2138 484.219V446.388H77.8805V484.219H66.2138ZM23.3091 363.564H94V376.474L49.5075 407.229V407.746H94V422.692H23.3091V409.576L67.767 379.063V378.441H23.3091V363.564ZM35.6317 353.908H23.3091L23.3091 295.851H35.6317V317.493H94V332.266H35.6317V353.908ZM94 282.743V298.759L23.3091 274.355V255.095L94 230.726V246.742L39.4631 264.449V265.001L94 282.743ZM66.2138 283.744V245.913H77.8805V283.744H66.2138ZM43.6396 185.482C40.8553 185.759 38.6922 186.944 37.1504 189.038C35.6087 191.132 34.8378 193.974 34.8378 197.563C34.8378 200.003 35.183 202.062 35.8733 203.742C36.5406 205.422 37.4726 206.71 38.6692 207.608C39.8658 208.482 41.2234 208.919 42.7422 208.919C44.0078 208.966 45.1124 208.701 46.0558 208.126C46.9993 207.527 47.8162 206.71 48.5065 205.675C49.1739 204.639 49.7607 203.443 50.2669 202.085C50.7501 200.727 51.1643 199.278 51.5095 197.736L53.0283 191.385C53.7186 188.301 54.6391 185.471 55.7896 182.894C56.9402 180.316 58.3554 178.084 60.0352 176.197C61.7151 174.31 63.694 172.849 65.9722 171.814C68.2503 170.755 70.8621 170.214 73.8075 170.191C78.1337 170.214 81.8845 171.319 85.0601 173.505C88.2126 175.668 90.6634 178.798 92.4122 182.894C94.1381 186.967 95.001 191.88 95.001 197.632C95.001 203.339 94.1266 208.31 92.3777 212.544C90.6288 216.755 88.0401 220.045 84.6114 222.416C81.1597 224.763 76.8911 225.994 71.8055 226.109V211.646C74.1757 211.485 76.1547 210.806 77.7425 209.61C79.3072 208.39 80.4923 206.768 81.2977 204.743C82.0801 202.695 82.4713 200.382 82.4713 197.805C82.4713 195.274 82.1031 193.076 81.3668 191.212C80.6304 189.325 79.6064 187.864 78.2947 186.829C76.9831 185.793 75.4759 185.275 73.773 185.275C72.1852 185.275 70.8506 185.747 69.769 186.691C68.6875 187.611 67.767 188.969 67.0077 190.764C66.2483 192.535 65.558 194.71 64.9366 197.287L63.0037 204.985C61.554 210.944 59.2874 215.65 56.2038 219.102C53.1203 222.554 48.9668 224.268 43.7432 224.245C39.4631 224.268 35.7237 223.129 32.5251 220.828C29.3266 218.504 26.8298 215.317 25.0349 211.267C23.2401 207.217 22.3426 202.614 22.3426 197.46C22.3426 192.213 23.2401 187.634 25.0349 183.722C26.8298 179.787 29.3266 176.727 32.5251 174.541C35.7237 172.354 39.4286 171.227 43.6396 171.158V185.482ZM35.6317 162.831H23.3091L23.3091 104.773H35.6317V126.415H94V141.188H35.6317L35.6317 162.831ZM23.3091 80.2658H94V95.2117H23.3091V80.2658ZM48.0578 5.59683V20.7153C46.1018 20.9914 44.3645 21.5552 42.8457 22.4066C41.304 23.258 39.9923 24.3511 38.9108 25.6857C37.8293 27.0204 37.0009 28.5622 36.4256 30.311C35.8503 32.0369 35.5626 33.9123 35.5626 35.9373C35.5626 39.5961 36.4716 42.7832 38.2895 45.4985C40.0844 48.2139 42.7077 50.3194 46.1594 51.8151C49.5881 53.3109 53.7531 54.0588 58.6545 54.0588C63.694 54.0588 67.9281 53.3109 71.3568 51.8151C74.7855 50.2964 77.3743 48.1794 79.1232 45.464C80.872 42.7487 81.7464 39.6076 81.7464 36.0409C81.7464 34.0389 81.4818 32.1865 80.9526 30.4836C80.4233 28.7578 79.6524 27.2275 78.6399 25.8928C77.6044 24.5582 76.3503 23.4536 74.8776 22.5792C73.4048 21.6818 71.725 21.0605 69.8381 20.7153L69.9071 5.59683C73.1517 5.98802 76.2813 6.966 79.2957 8.53077C82.2872 10.0725 84.968 12.1551 87.3382 14.7784C89.6854 17.3786 91.5493 20.4852 92.93 24.098C94.2876 27.6877 94.9665 31.7492 94.9665 36.2825C94.9665 42.5876 93.5398 48.2254 90.6864 53.1958C87.833 58.1433 83.7024 62.0552 78.2947 64.9316C72.8871 67.785 66.3403 69.2117 58.6545 69.2117C50.9457 69.2117 44.3875 67.762 38.9798 64.8626C33.5722 61.9632 29.4531 58.0282 26.6227 53.0578C23.7693 48.0873 22.3426 42.4955 22.3426 36.2825C22.3426 32.1865 22.9179 28.3896 24.0685 24.8919C25.219 21.3711 26.8989 18.2531 29.108 15.5377C31.294 12.8224 33.9749 10.6133 37.1504 8.91046C40.326 7.18461 43.9618 6.08006 48.0578 5.59683ZM212 502.759V511.733L141.309 485.776V476.94L212 450.983V459.958L152.493 481.082V481.634L212 502.759ZM184.386 499.445V463.271H191.98V499.445H184.386ZM163.4 386.41V394.971C160.938 395.477 158.775 396.363 156.911 397.628C155.047 398.871 153.482 400.39 152.216 402.185C150.928 403.957 149.961 405.924 149.317 408.087C148.673 410.25 148.351 412.505 148.351 414.852C148.351 419.133 149.432 423.01 151.595 426.485C153.758 429.936 156.945 432.686 161.156 434.734C165.367 436.759 170.534 437.772 176.655 437.772C182.776 437.772 187.942 436.759 192.153 434.734C196.364 432.686 199.551 429.936 201.714 426.485C203.877 423.01 204.959 419.133 204.959 414.852C204.959 412.505 204.636 410.25 203.992 408.087C203.348 405.924 202.393 403.957 201.127 402.185C199.838 400.39 198.262 398.871 196.398 397.628C194.511 396.363 192.348 395.477 189.909 394.971V386.41C193.522 387.055 196.755 388.228 199.608 389.931C202.462 391.634 204.889 393.751 206.891 396.282C208.87 398.814 210.378 401.655 211.413 404.808C212.449 407.938 212.966 411.286 212.966 414.852C212.966 420.881 211.494 426.243 208.548 430.937C205.603 435.632 201.415 439.325 195.984 442.017C190.553 444.71 184.11 446.056 176.655 446.056C169.199 446.056 162.756 444.71 157.325 442.017C151.894 439.325 147.706 435.632 144.761 430.937C141.815 426.243 140.343 420.881 140.343 414.852C140.343 411.286 140.86 407.938 141.896 404.808C142.931 401.655 144.45 398.814 146.452 396.282C148.431 393.751 150.847 391.634 153.701 389.931C156.531 388.228 159.764 387.055 163.4 386.41ZM212 369.678V378.653L141.309 352.696V343.86L212 317.903V326.877L152.493 348.002V348.554L212 369.678ZM184.386 366.365V330.191H191.98V366.365H184.386ZM212 285.077V306.892H141.309V284.111C141.309 277.253 142.724 271.385 145.555 266.507C148.362 261.628 152.401 257.889 157.67 255.289C162.917 252.689 169.199 251.388 176.516 251.388C183.88 251.388 190.22 252.7 195.535 255.323C200.828 257.947 204.901 261.766 207.754 266.783C210.585 271.799 212 277.897 212 285.077ZM204.406 298.332V285.629C204.406 279.784 203.279 274.94 201.024 271.098C198.768 267.255 195.558 264.39 191.393 262.503C187.228 260.616 182.269 259.672 176.516 259.672C170.81 259.672 165.897 260.604 161.778 262.468C157.636 264.332 154.46 267.117 152.251 270.821C150.019 274.526 148.903 279.14 148.903 284.663V298.332H204.406ZM212 237.029H141.309V194.366H148.903V228.469H172.789V196.575H180.382V228.469H204.406V193.814H212V237.029ZM141.309 178.937V168.72L199.988 144.696V143.868L141.309 119.844V109.627H212V117.635H158.291V118.325L212 140.416V148.148L158.291 170.239V170.929H212V178.937H141.309ZM141.309 98.5383V88.7354L174.307 69.1297V68.3013L141.309 48.6957V38.8928L182.868 64.4354H212V72.9957H182.868L141.309 98.5383Z" fill="#222222"/>
</svg>
